<mxfile host="app.diagrams.net" modified="2023-05-16T03:50:18.613Z" agent="Mozilla/5.0 (X11; Linux x86_64; rv:109.0) Gecko/20100101 Firefox/113.0" etag="dt09bkRewvOoz726oyt0" version="21.3.2" type="device">
  <diagram id="Cc3wvz39KDawzFyryNWj" name="Page-1">
    <mxGraphModel dx="2074" dy="1182" grid="1" gridSize="10" guides="1" tooltips="1" connect="1" arrows="1" fold="1" page="1" pageScale="1" pageWidth="1100" pageHeight="850" math="0" shadow="0">
      <root>
        <mxCell id="0" />
        <mxCell id="1" parent="0" />
        <mxCell id="gHQ44SeNL3S-fUA9bQiC-9" value="&lt;div&gt;Job Generator&lt;/div&gt;&lt;div&gt;&amp;amp; Dispatch&lt;br&gt;&lt;/div&gt;" style="rounded=0;whiteSpace=wrap;html=1;fontFamily=Times New Roman;" parent="1" vertex="1">
          <mxGeometry x="600" y="355" width="120" height="50" as="geometry" />
        </mxCell>
        <mxCell id="gHQ44SeNL3S-fUA9bQiC-10" value="&lt;div&gt;Tensor&lt;/div&gt;&lt;div&gt;Memory&lt;/div&gt;" style="shape=cube;whiteSpace=wrap;html=1;boundedLbl=1;backgroundOutline=1;darkOpacity=0.05;darkOpacity2=0.1;size=10;fontFamily=Times New Roman;" parent="1" vertex="1">
          <mxGeometry x="420" y="200" width="110" height="70" as="geometry" />
        </mxCell>
        <mxCell id="gHQ44SeNL3S-fUA9bQiC-11" value="" style="whiteSpace=wrap;html=1;aspect=fixed;" parent="1" vertex="1">
          <mxGeometry x="460" y="350" width="80" height="80" as="geometry" />
        </mxCell>
        <mxCell id="gHQ44SeNL3S-fUA9bQiC-12" value="" style="whiteSpace=wrap;html=1;aspect=fixed;" parent="1" vertex="1">
          <mxGeometry x="450" y="340" width="80" height="80" as="geometry" />
        </mxCell>
        <mxCell id="gHQ44SeNL3S-fUA9bQiC-13" value="&lt;div&gt;Processing&lt;/div&gt;&lt;div&gt;Elements&lt;br&gt;&lt;/div&gt;" style="whiteSpace=wrap;html=1;aspect=fixed;fontFamily=Times New Roman;" parent="1" vertex="1">
          <mxGeometry x="440" y="330" width="80" height="80" as="geometry" />
        </mxCell>
        <mxCell id="gHQ44SeNL3S-fUA9bQiC-16" value="" style="shape=flexArrow;endArrow=classic;startArrow=classic;html=1;rounded=0;strokeWidth=1;endSize=6;exitX=0.5;exitY=0;exitDx=0;exitDy=0;entryX=0;entryY=0;entryDx=60;entryDy=70;entryPerimeter=0;" parent="1" source="gHQ44SeNL3S-fUA9bQiC-13" target="gHQ44SeNL3S-fUA9bQiC-10" edge="1">
          <mxGeometry width="100" height="100" relative="1" as="geometry">
            <mxPoint x="560" y="420" as="sourcePoint" />
            <mxPoint x="480" y="270" as="targetPoint" />
          </mxGeometry>
        </mxCell>
        <mxCell id="gHQ44SeNL3S-fUA9bQiC-20" value="" style="endArrow=none;startArrow=blockThin;html=1;rounded=0;strokeWidth=2;entryX=0.5;entryY=1;entryDx=0;entryDy=0;exitX=0.5;exitY=0;exitDx=0;exitDy=0;startFill=1;endFill=0;" parent="1" source="gHQ44SeNL3S-fUA9bQiC-9" target="gHQ44SeNL3S-fUA9bQiC-22" edge="1">
          <mxGeometry width="100" height="100" relative="1" as="geometry">
            <mxPoint x="560" y="420" as="sourcePoint" />
            <mxPoint x="690" y="280" as="targetPoint" />
          </mxGeometry>
        </mxCell>
        <mxCell id="gHQ44SeNL3S-fUA9bQiC-22" value="&lt;div&gt;Input/&lt;/div&gt;&lt;div&gt;Output&lt;br&gt;&lt;/div&gt;" style="rounded=0;whiteSpace=wrap;html=1;fontFamily=Times New Roman;" parent="1" vertex="1">
          <mxGeometry x="600" y="210" width="120" height="60" as="geometry" />
        </mxCell>
        <mxCell id="gHQ44SeNL3S-fUA9bQiC-25" value="" style="endArrow=blockThin;html=1;rounded=0;strokeWidth=2;entryX=1;entryY=0.5;entryDx=0;entryDy=0;endFill=1;" parent="1" target="gHQ44SeNL3S-fUA9bQiC-12" edge="1">
          <mxGeometry width="50" height="50" relative="1" as="geometry">
            <mxPoint x="600" y="380" as="sourcePoint" />
            <mxPoint x="640" y="350" as="targetPoint" />
          </mxGeometry>
        </mxCell>
        <mxCell id="gHQ44SeNL3S-fUA9bQiC-26" value="" style="endArrow=blockThin;html=1;rounded=0;strokeWidth=2;entryX=1;entryY=0.5;entryDx=0;entryDy=0;endFill=1;" parent="1" target="gHQ44SeNL3S-fUA9bQiC-13" edge="1">
          <mxGeometry width="50" height="50" relative="1" as="geometry">
            <mxPoint x="600" y="370" as="sourcePoint" />
            <mxPoint x="640" y="350" as="targetPoint" />
          </mxGeometry>
        </mxCell>
        <mxCell id="gHQ44SeNL3S-fUA9bQiC-19" value="" style="shape=flexArrow;endArrow=none;startArrow=classic;html=1;rounded=0;strokeWidth=1;endSize=6;entryX=0;entryY=0.25;entryDx=0;entryDy=0;exitX=0.998;exitY=0.359;exitDx=0;exitDy=0;exitPerimeter=0;fillColor=default;endFill=0;" parent="1" source="gHQ44SeNL3S-fUA9bQiC-10" target="gHQ44SeNL3S-fUA9bQiC-22" edge="1">
          <mxGeometry width="100" height="100" relative="1" as="geometry">
            <mxPoint x="540" y="240" as="sourcePoint" />
            <mxPoint x="650" y="240" as="targetPoint" />
          </mxGeometry>
        </mxCell>
        <mxCell id="gHQ44SeNL3S-fUA9bQiC-42" value="" style="rounded=0;whiteSpace=wrap;html=1;dashed=1;strokeWidth=1;fillColor=none;" parent="1" vertex="1">
          <mxGeometry x="50" y="200" width="310" height="230" as="geometry" />
        </mxCell>
        <mxCell id="gHQ44SeNL3S-fUA9bQiC-30" value="&lt;div&gt;Intersection&lt;/div&gt;&lt;div&gt;&amp;amp; MAC&lt;br&gt;&lt;/div&gt;&lt;div&gt;&lt;br&gt;&lt;/div&gt;" style="shape=offPageConnector;whiteSpace=wrap;html=1;strokeWidth=1;size=0.375;fontFamily=Times New Roman;" parent="1" vertex="1">
          <mxGeometry x="130" y="285" width="90" height="80" as="geometry" />
        </mxCell>
        <mxCell id="gHQ44SeNL3S-fUA9bQiC-33" value="&lt;div&gt;Fiber&lt;br&gt;&lt;/div&gt;&lt;div&gt;Loader&lt;/div&gt;" style="rounded=0;whiteSpace=wrap;html=1;strokeWidth=1;fontFamily=Times New Roman;" parent="1" vertex="1">
          <mxGeometry x="100" y="225" width="70" height="40" as="geometry" />
        </mxCell>
        <mxCell id="gHQ44SeNL3S-fUA9bQiC-34" value="&lt;div&gt;Fiber&lt;br&gt;&lt;/div&gt;&lt;div&gt;Loader&lt;/div&gt;" style="rounded=0;whiteSpace=wrap;html=1;strokeWidth=1;fontFamily=Times New Roman;" parent="1" vertex="1">
          <mxGeometry x="180" y="225" width="70" height="40" as="geometry" />
        </mxCell>
        <mxCell id="gHQ44SeNL3S-fUA9bQiC-35" value="Result Storage" style="rounded=0;whiteSpace=wrap;html=1;strokeWidth=1;fontFamily=Times New Roman;" parent="1" vertex="1">
          <mxGeometry x="135" y="385" width="80" height="20" as="geometry" />
        </mxCell>
        <mxCell id="gHQ44SeNL3S-fUA9bQiC-43" value="" style="endArrow=none;dashed=1;html=1;strokeWidth=1;rounded=0;fillColor=default;entryX=0;entryY=0;entryDx=0;entryDy=0;exitX=1;exitY=0;exitDx=0;exitDy=0;" parent="1" source="gHQ44SeNL3S-fUA9bQiC-42" target="gHQ44SeNL3S-fUA9bQiC-13" edge="1">
          <mxGeometry width="50" height="50" relative="1" as="geometry">
            <mxPoint x="400" y="420" as="sourcePoint" />
            <mxPoint x="450" y="370" as="targetPoint" />
          </mxGeometry>
        </mxCell>
        <mxCell id="gHQ44SeNL3S-fUA9bQiC-44" value="" style="endArrow=none;dashed=1;html=1;strokeWidth=1;rounded=0;fillColor=default;entryX=0;entryY=1;entryDx=0;entryDy=0;exitX=1;exitY=1;exitDx=0;exitDy=0;" parent="1" source="gHQ44SeNL3S-fUA9bQiC-42" target="gHQ44SeNL3S-fUA9bQiC-13" edge="1">
          <mxGeometry width="50" height="50" relative="1" as="geometry">
            <mxPoint x="400" y="420" as="sourcePoint" />
            <mxPoint x="450" y="370" as="targetPoint" />
          </mxGeometry>
        </mxCell>
        <mxCell id="gHQ44SeNL3S-fUA9bQiC-45" value="" style="shape=flexArrow;endArrow=classic;html=1;rounded=0;strokeWidth=1;fillColor=default;exitX=0.5;exitY=1;exitDx=0;exitDy=0;startArrow=none;startFill=0;startSize=0;strokeColor=default;" parent="1" source="gHQ44SeNL3S-fUA9bQiC-35" edge="1">
          <mxGeometry width="50" height="50" relative="1" as="geometry">
            <mxPoint x="325" y="420" as="sourcePoint" />
            <mxPoint x="175" y="460" as="targetPoint" />
          </mxGeometry>
        </mxCell>
        <mxCell id="gHQ44SeNL3S-fUA9bQiC-46" value="" style="shape=flexArrow;endArrow=classic;html=1;rounded=0;strokeWidth=1;fillColor=default;entryX=0.5;entryY=0;entryDx=0;entryDy=0;" parent="1" target="gHQ44SeNL3S-fUA9bQiC-34" edge="1">
          <mxGeometry width="50" height="50" relative="1" as="geometry">
            <mxPoint x="215" y="160" as="sourcePoint" />
            <mxPoint x="255" y="160" as="targetPoint" />
          </mxGeometry>
        </mxCell>
        <mxCell id="gHQ44SeNL3S-fUA9bQiC-47" value="" style="shape=flexArrow;endArrow=classic;html=1;rounded=0;strokeWidth=1;fillColor=default;entryX=0.5;entryY=0;entryDx=0;entryDy=0;" parent="1" target="gHQ44SeNL3S-fUA9bQiC-33" edge="1">
          <mxGeometry width="50" height="50" relative="1" as="geometry">
            <mxPoint x="135" y="160" as="sourcePoint" />
            <mxPoint x="145" y="160" as="targetPoint" />
          </mxGeometry>
        </mxCell>
        <mxCell id="gHQ44SeNL3S-fUA9bQiC-48" value="&lt;div&gt;Tensor&lt;/div&gt;&lt;div&gt;Elements&lt;br&gt;&lt;/div&gt;" style="text;html=1;strokeColor=none;fillColor=none;align=left;verticalAlign=middle;whiteSpace=wrap;rounded=0;dashed=1;strokeWidth=1;fontFamily=Times New Roman;" parent="1" vertex="1">
          <mxGeometry x="500" y="290" width="60" height="30" as="geometry" />
        </mxCell>
        <mxCell id="gHQ44SeNL3S-fUA9bQiC-51" value="Contraction Modes" style="text;html=1;strokeColor=none;fillColor=none;align=center;verticalAlign=middle;whiteSpace=wrap;rounded=0;dashed=1;strokeWidth=1;fontFamily=Times New Roman;" parent="1" vertex="1">
          <mxGeometry x="140" y="160" width="70" height="30" as="geometry" />
        </mxCell>
        <mxCell id="gHQ44SeNL3S-fUA9bQiC-53" value="Result Elements" style="text;html=1;strokeColor=none;fillColor=none;align=center;verticalAlign=middle;whiteSpace=wrap;rounded=0;dashed=1;strokeWidth=1;fontFamily=Times New Roman;" parent="1" vertex="1">
          <mxGeometry x="180" y="440" width="60" height="30" as="geometry" />
        </mxCell>
        <mxCell id="gHQ44SeNL3S-fUA9bQiC-54" value="&lt;div&gt;Job&lt;/div&gt;&lt;div&gt;Queue&lt;/div&gt;" style="shape=cylinder3;whiteSpace=wrap;html=1;boundedLbl=1;backgroundOutline=1;size=7.059829059829099;strokeWidth=1;fontFamily=Times New Roman;fillColor=none;" parent="1" vertex="1">
          <mxGeometry x="280" y="285" width="60" height="60" as="geometry" />
        </mxCell>
        <mxCell id="gHQ44SeNL3S-fUA9bQiC-55" value="" style="endArrow=blockThin;html=1;rounded=0;strokeColor=default;strokeWidth=2;fontFamily=Times New Roman;startSize=0;fillColor=default;entryX=1;entryY=0.5;entryDx=0;entryDy=0;entryPerimeter=0;exitX=0.5;exitY=0;exitDx=0;exitDy=0;endFill=1;" parent="1" source="gHQ44SeNL3S-fUA9bQiC-56" target="gHQ44SeNL3S-fUA9bQiC-54" edge="1">
          <mxGeometry width="50" height="50" relative="1" as="geometry">
            <mxPoint x="390" y="320" as="sourcePoint" />
            <mxPoint x="200" y="340" as="targetPoint" />
          </mxGeometry>
        </mxCell>
        <mxCell id="gHQ44SeNL3S-fUA9bQiC-56" value="Fiber Addresses" style="text;html=1;strokeColor=none;fillColor=none;align=center;verticalAlign=middle;whiteSpace=wrap;rounded=0;strokeWidth=1;fontFamily=Times New Roman;" parent="1" vertex="1">
          <mxGeometry x="360" y="315" width="60" height="30" as="geometry" />
        </mxCell>
        <mxCell id="gHQ44SeNL3S-fUA9bQiC-57" value="" style="endArrow=classic;html=1;rounded=0;strokeWidth=1;exitX=0.75;exitY=1;exitDx=0;exitDy=0;entryX=0.25;entryY=0;entryDx=0;entryDy=0;shape=flexArrow;endSize=2.7419354838709675;startSize=2;endWidth=9.67741935483871;width=3.8709677419354835;" parent="1" source="gHQ44SeNL3S-fUA9bQiC-33" target="gHQ44SeNL3S-fUA9bQiC-30" edge="1">
          <mxGeometry width="50" height="50" relative="1" as="geometry">
            <mxPoint x="207.5" y="275" as="sourcePoint" />
            <mxPoint x="207.5" y="295" as="targetPoint" />
          </mxGeometry>
        </mxCell>
        <mxCell id="gHQ44SeNL3S-fUA9bQiC-58" value="" style="endArrow=classic;html=1;rounded=0;strokeWidth=1;exitX=0.5;exitY=1;exitDx=0;exitDy=0;entryX=0.5;entryY=0;entryDx=0;entryDy=0;shape=flexArrow;endSize=2.7419354838709675;startSize=2;endWidth=9.67741935483871;width=3.8709677419354835;" parent="1" source="gHQ44SeNL3S-fUA9bQiC-30" target="gHQ44SeNL3S-fUA9bQiC-35" edge="1">
          <mxGeometry width="50" height="50" relative="1" as="geometry">
            <mxPoint x="217.5" y="285" as="sourcePoint" />
            <mxPoint x="217.5" y="305" as="targetPoint" />
          </mxGeometry>
        </mxCell>
        <mxCell id="gHQ44SeNL3S-fUA9bQiC-59" value="Indexed elements" style="text;html=1;strokeColor=none;fillColor=none;align=center;verticalAlign=middle;whiteSpace=wrap;rounded=0;strokeWidth=1;fontFamily=Times New Roman;" parent="1" vertex="1">
          <mxGeometry x="50" y="270" width="100" height="10" as="geometry" />
        </mxCell>
        <mxCell id="gHQ44SeNL3S-fUA9bQiC-60" value="Indexed elements" style="text;html=1;strokeColor=none;fillColor=none;align=center;verticalAlign=middle;whiteSpace=wrap;rounded=0;strokeWidth=1;fontFamily=Times New Roman;" parent="1" vertex="1">
          <mxGeometry x="80" y="365" width="90" height="10" as="geometry" />
        </mxCell>
        <mxCell id="gHQ44SeNL3S-fUA9bQiC-61" value="" style="curved=1;endArrow=blockThin;html=1;rounded=0;strokeColor=default;strokeWidth=1;fontFamily=Times New Roman;fillColor=default;exitX=0.855;exitY=1;exitDx=0;exitDy=-2.0473504273504384;exitPerimeter=0;entryX=0.75;entryY=0;entryDx=0;entryDy=0;edgeStyle=orthogonalEdgeStyle;endFill=1;" parent="1" source="gHQ44SeNL3S-fUA9bQiC-54" target="gHQ44SeNL3S-fUA9bQiC-35" edge="1">
          <mxGeometry width="50" height="50" relative="1" as="geometry">
            <mxPoint x="210" y="430" as="sourcePoint" />
            <mxPoint x="260" y="380" as="targetPoint" />
            <Array as="points">
              <mxPoint x="331" y="370" />
              <mxPoint x="195" y="370" />
            </Array>
          </mxGeometry>
        </mxCell>
        <mxCell id="gHQ44SeNL3S-fUA9bQiC-62" value="Result Destination" style="text;html=1;strokeColor=none;fillColor=none;align=center;verticalAlign=middle;whiteSpace=wrap;rounded=0;strokeWidth=1;fontFamily=Times New Roman;" parent="1" vertex="1">
          <mxGeometry x="220" y="370" width="100" height="30" as="geometry" />
        </mxCell>
        <mxCell id="gHQ44SeNL3S-fUA9bQiC-64" value="" style="endArrow=blockThin;html=1;rounded=0;strokeColor=default;strokeWidth=1;fontFamily=Times New Roman;fillColor=default;curved=1;exitX=0.5;exitY=1;exitDx=0;exitDy=0;exitPerimeter=0;entryX=1;entryY=1;entryDx=0;entryDy=0;edgeStyle=orthogonalEdgeStyle;endFill=1;" parent="1" source="gHQ44SeNL3S-fUA9bQiC-54" target="gHQ44SeNL3S-fUA9bQiC-33" edge="1">
          <mxGeometry width="50" height="50" relative="1" as="geometry">
            <mxPoint x="220" y="340" as="sourcePoint" />
            <mxPoint x="270" y="290" as="targetPoint" />
            <Array as="points">
              <mxPoint x="310" y="360" />
              <mxPoint x="240" y="360" />
              <mxPoint x="240" y="280" />
              <mxPoint x="170" y="280" />
            </Array>
          </mxGeometry>
        </mxCell>
        <mxCell id="gHQ44SeNL3S-fUA9bQiC-50" value="" style="endArrow=classic;html=1;rounded=0;strokeWidth=1;exitX=0.25;exitY=1;exitDx=0;exitDy=0;entryX=0.75;entryY=0;entryDx=0;entryDy=0;shape=flexArrow;endSize=2.7419354838709675;startSize=2;endWidth=9.67741935483871;width=3.8709677419354835;fillColor=default;" parent="1" source="gHQ44SeNL3S-fUA9bQiC-34" target="gHQ44SeNL3S-fUA9bQiC-30" edge="1">
          <mxGeometry width="50" height="50" relative="1" as="geometry">
            <mxPoint x="162.5000000000001" y="275" as="sourcePoint" />
            <mxPoint x="187.5000000000001" y="295" as="targetPoint" />
          </mxGeometry>
        </mxCell>
        <mxCell id="gHQ44SeNL3S-fUA9bQiC-65" value="" style="endArrow=blockThin;html=1;rounded=0;strokeColor=default;strokeWidth=1;fontFamily=Times New Roman;fillColor=default;curved=1;exitX=0.145;exitY=1;exitDx=0;exitDy=-2.0473504273504384;exitPerimeter=0;entryX=0.75;entryY=1;entryDx=0;entryDy=0;edgeStyle=orthogonalEdgeStyle;endFill=1;" parent="1" source="gHQ44SeNL3S-fUA9bQiC-54" target="gHQ44SeNL3S-fUA9bQiC-34" edge="1">
          <mxGeometry width="50" height="50" relative="1" as="geometry">
            <mxPoint x="220" y="340" as="sourcePoint" />
            <mxPoint x="270" y="290" as="targetPoint" />
            <Array as="points">
              <mxPoint x="260" y="348" />
              <mxPoint x="260" y="280" />
              <mxPoint x="233" y="280" />
            </Array>
          </mxGeometry>
        </mxCell>
        <mxCell id="gHQ44SeNL3S-fUA9bQiC-66" value="Input Bound Pointers" style="text;html=1;strokeColor=none;fillColor=none;align=center;verticalAlign=middle;whiteSpace=wrap;rounded=0;strokeWidth=1;fontFamily=Times New Roman;" parent="1" vertex="1">
          <mxGeometry x="240" y="255" width="90" height="30" as="geometry" />
        </mxCell>
        <mxCell id="gHQ44SeNL3S-fUA9bQiC-67" value="&lt;div&gt;Contraction&lt;/div&gt;&lt;div&gt;Specification&lt;br&gt;&lt;/div&gt;" style="text;html=1;strokeColor=none;fillColor=none;align=right;verticalAlign=middle;whiteSpace=wrap;rounded=0;strokeWidth=1;fontFamily=Times New Roman;" parent="1" vertex="1">
          <mxGeometry x="577" y="290" width="80" height="30" as="geometry" />
        </mxCell>
        <mxCell id="gHQ44SeNL3S-fUA9bQiC-68" value="" style="rounded=0;whiteSpace=wrap;html=1;strokeWidth=1;fontFamily=Times New Roman;fillColor=none;dashed=1;" parent="1" vertex="1">
          <mxGeometry x="780" y="200" width="180" height="230" as="geometry" />
        </mxCell>
        <mxCell id="gHQ44SeNL3S-fUA9bQiC-69" value="" style="endArrow=none;html=1;rounded=0;strokeColor=default;strokeWidth=1;fontFamily=Times New Roman;fillColor=default;curved=1;exitX=1;exitY=0;exitDx=0;exitDy=0;entryX=0;entryY=0;entryDx=0;entryDy=0;dashed=1;" parent="1" source="gHQ44SeNL3S-fUA9bQiC-9" target="gHQ44SeNL3S-fUA9bQiC-68" edge="1">
          <mxGeometry width="50" height="50" relative="1" as="geometry">
            <mxPoint x="560" y="370" as="sourcePoint" />
            <mxPoint x="610" y="320" as="targetPoint" />
          </mxGeometry>
        </mxCell>
        <mxCell id="gHQ44SeNL3S-fUA9bQiC-70" value="" style="endArrow=none;html=1;rounded=0;strokeColor=default;strokeWidth=1;fontFamily=Times New Roman;fillColor=default;curved=1;exitX=1;exitY=1;exitDx=0;exitDy=0;entryX=0;entryY=1;entryDx=0;entryDy=0;dashed=1;" parent="1" source="gHQ44SeNL3S-fUA9bQiC-9" target="gHQ44SeNL3S-fUA9bQiC-68" edge="1">
          <mxGeometry width="50" height="50" relative="1" as="geometry">
            <mxPoint x="560" y="370" as="sourcePoint" />
            <mxPoint x="610" y="320" as="targetPoint" />
          </mxGeometry>
        </mxCell>
        <mxCell id="gHQ44SeNL3S-fUA9bQiC-71" value="" style="shape=flexArrow;endArrow=classic;startArrow=none;html=1;rounded=0;strokeWidth=1;endSize=6;entryX=0;entryY=0.25;entryDx=0;entryDy=0;exitX=0.998;exitY=0.359;exitDx=0;exitDy=0;exitPerimeter=0;fillColor=default;startFill=0;" parent="1" edge="1">
          <mxGeometry width="100" height="100" relative="1" as="geometry">
            <mxPoint x="529.7799999999997" y="255.12999999999988" as="sourcePoint" />
            <mxPoint x="600" y="255" as="targetPoint" />
          </mxGeometry>
        </mxCell>
        <mxCell id="gHQ44SeNL3S-fUA9bQiC-72" value="Input Tensors" style="text;html=1;strokeColor=none;fillColor=none;align=center;verticalAlign=middle;whiteSpace=wrap;rounded=0;dashed=1;strokeWidth=1;fontFamily=Times New Roman;" parent="1" vertex="1">
          <mxGeometry x="530" y="180" width="70" height="30" as="geometry" />
        </mxCell>
        <mxCell id="gHQ44SeNL3S-fUA9bQiC-73" value="Result Tensor" style="text;html=1;strokeColor=none;fillColor=none;align=center;verticalAlign=middle;whiteSpace=wrap;rounded=0;dashed=1;strokeWidth=1;fontFamily=Times New Roman;" parent="1" vertex="1">
          <mxGeometry x="530" y="260" width="70" height="30" as="geometry" />
        </mxCell>
        <mxCell id="gHQ44SeNL3S-fUA9bQiC-76" value="&lt;div&gt;Job&lt;/div&gt;&lt;div&gt;Queue&lt;/div&gt;" style="shape=cylinder3;whiteSpace=wrap;html=1;boundedLbl=1;backgroundOutline=1;size=7.059829059829099;strokeWidth=1;fontFamily=Times New Roman;fillColor=none;" parent="1" vertex="1">
          <mxGeometry x="842.5" y="305" width="55" height="60" as="geometry" />
        </mxCell>
        <mxCell id="gHQ44SeNL3S-fUA9bQiC-77" value="Scheduler" style="rounded=0;whiteSpace=wrap;html=1;strokeWidth=1;fontFamily=Times New Roman;fillColor=none;" parent="1" vertex="1">
          <mxGeometry x="830" y="385" width="80" height="30" as="geometry" />
        </mxCell>
        <mxCell id="gHQ44SeNL3S-fUA9bQiC-78" value="" style="endArrow=none;startArrow=blockThin;html=1;rounded=0;strokeWidth=2;endFill=0;startFill=1;" parent="1" edge="1">
          <mxGeometry width="100" height="100" relative="1" as="geometry">
            <mxPoint x="760" y="410" as="sourcePoint" />
            <mxPoint x="830" y="410" as="targetPoint" />
          </mxGeometry>
        </mxCell>
        <mxCell id="gHQ44SeNL3S-fUA9bQiC-79" value="" style="endArrow=blockThin;html=1;rounded=0;strokeWidth=2;endFill=1;" parent="1" edge="1">
          <mxGeometry width="50" height="50" relative="1" as="geometry">
            <mxPoint x="830" y="400" as="sourcePoint" />
            <mxPoint x="760" y="400" as="targetPoint" />
          </mxGeometry>
        </mxCell>
        <mxCell id="gHQ44SeNL3S-fUA9bQiC-80" value="" style="endArrow=blockThin;html=1;strokeWidth=2;rounded=0;endFill=1;" parent="1" edge="1">
          <mxGeometry width="50" height="50" relative="1" as="geometry">
            <mxPoint x="830" y="390" as="sourcePoint" />
            <mxPoint x="760" y="390" as="targetPoint" />
          </mxGeometry>
        </mxCell>
        <mxCell id="gHQ44SeNL3S-fUA9bQiC-81" value="" style="endArrow=classic;html=1;rounded=0;strokeColor=default;strokeWidth=2;fontFamily=Times New Roman;fillColor=default;curved=1;exitX=0.5;exitY=1;exitDx=0;exitDy=0;exitPerimeter=0;entryX=0.5;entryY=0;entryDx=0;entryDy=0;" parent="1" source="gHQ44SeNL3S-fUA9bQiC-76" target="gHQ44SeNL3S-fUA9bQiC-77" edge="1">
          <mxGeometry width="50" height="50" relative="1" as="geometry">
            <mxPoint x="690" y="350" as="sourcePoint" />
            <mxPoint x="740" y="300" as="targetPoint" />
          </mxGeometry>
        </mxCell>
        <mxCell id="gHQ44SeNL3S-fUA9bQiC-83" value="Contraction Enumeration" style="rounded=0;whiteSpace=wrap;html=1;strokeWidth=1;fontFamily=Times New Roman;fillColor=none;" parent="1" vertex="1">
          <mxGeometry x="820" y="255" width="100" height="35" as="geometry" />
        </mxCell>
        <mxCell id="gHQ44SeNL3S-fUA9bQiC-86" value="" style="endArrow=blockThin;html=1;strokeWidth=2;rounded=0;endFill=1;entryX=0.75;entryY=0;entryDx=0;entryDy=0;" parent="1" target="gHQ44SeNL3S-fUA9bQiC-83" edge="1">
          <mxGeometry width="50" height="50" relative="1" as="geometry">
            <mxPoint x="895" y="180" as="sourcePoint" />
            <mxPoint x="820" y="150" as="targetPoint" />
          </mxGeometry>
        </mxCell>
        <mxCell id="gHQ44SeNL3S-fUA9bQiC-87" value="" style="endArrow=blockThin;html=1;strokeWidth=2;rounded=0;endFill=1;entryX=0.25;entryY=0;entryDx=0;entryDy=0;" parent="1" target="gHQ44SeNL3S-fUA9bQiC-83" edge="1">
          <mxGeometry width="50" height="50" relative="1" as="geometry">
            <mxPoint x="845" y="180" as="sourcePoint" />
            <mxPoint x="830" y="160" as="targetPoint" />
          </mxGeometry>
        </mxCell>
        <mxCell id="gHQ44SeNL3S-fUA9bQiC-88" value="" style="endArrow=blockThin;html=1;strokeWidth=2;rounded=0;endFill=1;entryX=0.5;entryY=0;entryDx=0;entryDy=0;" parent="1" edge="1">
          <mxGeometry width="50" height="50" relative="1" as="geometry">
            <mxPoint x="861" y="180" as="sourcePoint" />
            <mxPoint x="861" y="255" as="targetPoint" />
          </mxGeometry>
        </mxCell>
        <mxCell id="gHQ44SeNL3S-fUA9bQiC-89" value="&lt;div&gt;Tensor&lt;/div&gt;&lt;div&gt;Metadata&lt;/div&gt;" style="text;html=1;strokeColor=none;fillColor=none;align=right;verticalAlign=middle;whiteSpace=wrap;rounded=0;dashed=1;strokeWidth=1;fontFamily=Times New Roman;" parent="1" vertex="1">
          <mxGeometry x="790" y="210" width="50" height="30" as="geometry" />
        </mxCell>
        <mxCell id="gHQ44SeNL3S-fUA9bQiC-90" value="&lt;div&gt;Contraction&lt;/div&gt;&lt;div&gt;Direction&lt;br&gt;&lt;/div&gt;" style="text;html=1;strokeColor=none;fillColor=none;align=left;verticalAlign=middle;whiteSpace=wrap;rounded=0;dashed=1;strokeWidth=1;fontFamily=Times New Roman;" parent="1" vertex="1">
          <mxGeometry x="900" y="210" width="50" height="30" as="geometry" />
        </mxCell>
        <mxCell id="gHQ44SeNL3S-fUA9bQiC-91" value="" style="endArrow=none;html=1;rounded=0;strokeColor=default;strokeWidth=2;fontFamily=Times New Roman;fillColor=default;curved=1;exitX=0.5;exitY=1;exitDx=0;exitDy=0;entryX=0.5;entryY=0;entryDx=0;entryDy=0;entryPerimeter=0;endFill=0;" parent="1" source="gHQ44SeNL3S-fUA9bQiC-83" target="gHQ44SeNL3S-fUA9bQiC-76" edge="1">
          <mxGeometry width="50" height="50" relative="1" as="geometry">
            <mxPoint x="890" y="295" as="sourcePoint" />
            <mxPoint x="890" y="320" as="targetPoint" />
          </mxGeometry>
        </mxCell>
        <mxCell id="gHQ44SeNL3S-fUA9bQiC-92" value="" style="endArrow=blockThin;html=1;rounded=0;strokeWidth=2;entryX=1;entryY=0.5;entryDx=0;entryDy=0;endFill=1;" parent="1" edge="1">
          <mxGeometry width="50" height="50" relative="1" as="geometry">
            <mxPoint x="600" y="390" as="sourcePoint" />
            <mxPoint x="540" y="390" as="targetPoint" />
          </mxGeometry>
        </mxCell>
        <mxCell id="gHQ44SeNL3S-fUA9bQiC-93" value="PE Jobs" style="text;html=1;strokeColor=none;fillColor=none;align=center;verticalAlign=middle;whiteSpace=wrap;rounded=0;strokeWidth=1;fontFamily=Times New Roman;" parent="1" vertex="1">
          <mxGeometry x="780" y="365" width="50" height="30" as="geometry" />
        </mxCell>
      </root>
    </mxGraphModel>
  </diagram>
</mxfile>
